<svg width="103" height="32" viewBox="0 0 103 32" fill="none" xmlns="http://www.w3.org/2000/svg">
<rect y="4" width="24" height="24" rx="9" fill="white"/>
<circle cx="12.2998" cy="16.3" r="7.5" fill="#7262FF"/>
<circle cx="12.3001" cy="16.3" r="2.7" fill="white"/>
<path d="M43.4672 24.168C41.8992 24.168 40.4592 23.8 39.1472 23.064C37.8352 22.328 36.7952 21.312 36.0272 20.016C35.2592 18.704 34.8752 17.224 34.8752 15.576C34.8752 13.944 35.2592 12.48 36.0272 11.184C36.7952 9.872 37.8352 8.848 39.1472 8.112C40.4592 7.376 41.8992 7.008 43.4672 7.008C45.0512 7.008 46.4912 7.376 47.7872 8.112C49.0992 8.848 50.1312 9.872 50.8832 11.184C51.6512 12.48 52.0352 13.944 52.0352 15.576C52.0352 17.224 51.6512 18.704 50.8832 20.016C50.1312 21.312 49.0992 22.328 47.7872 23.064C46.4752 23.8 45.0352 24.168 43.4672 24.168ZM43.4672 21.168C44.4752 21.168 45.3632 20.944 46.1312 20.496C46.8992 20.032 47.4992 19.376 47.9312 18.528C48.3632 17.68 48.5792 16.696 48.5792 15.576C48.5792 14.456 48.3632 13.48 47.9312 12.648C47.4992 11.8 46.8992 11.152 46.1312 10.704C45.3632 10.256 44.4752 10.032 43.4672 10.032C42.4592 10.032 41.5632 10.256 40.7792 10.704C40.0112 11.152 39.4112 11.8 38.9792 12.648C38.5472 13.48 38.3312 14.456 38.3312 15.576C38.3312 16.696 38.5472 17.68 38.9792 18.528C39.4112 19.376 40.0112 20.032 40.7792 20.496C41.5632 20.944 42.4592 21.168 43.4672 21.168ZM67.8549 7.248L62.1909 18.168V24H58.8309V18.168L53.1429 7.248H56.9349L60.5349 14.904L64.1109 7.248H67.8549ZM84.1207 24H80.7607L73.1527 12.504V24H69.7927V7.224H73.1527L80.7607 18.744V7.224H84.1207V24ZM97.7132 20.808H91.0412L89.9372 24H86.4092L92.4332 7.224H96.3452L102.369 24H98.8172L97.7132 20.808ZM96.8012 18.12L94.3772 11.112L91.9532 18.12H96.8012Z" fill="white"/>
</svg>
